# xmcd CD database file
#
# Track frame offsets:
#	150
#	13945
#	30235
#	49912
#	90574
#	103083
#	123352
#	150979
#	168746
#	200425
#	214472
#
# Disc length: 3175 seconds
#
# Revision: 2
# Processed by: cddbd v1.5.2PL0 Copyright (c) Steve Scherf et al.
# Submitted via: CDex 1.70beta2
#
DISCID=900c650b
DTITLE=John Zorn - The Dreamers
DYEAR=2008
DGENRE=Jazz
TTITLE0=Mow Mow
TTITLE1=Uluwati
TTITLE2=Ride on Cottonfair
TTITLE3=Anulikwutsayl
TTITLE4=Toys
TTITLE5=Of Wonder and Certainty
TTITLE6=Mystic Circles
TTITLE7=Nekashim
TTITLE8=Exodus
TTITLE9=Forbidden Tears
TTITLE10=Raksasa
EXTD=YEAR: 2008
EXTT0=
EXTT1=
EXTT2=
EXTT3=
EXTT4=
EXTT5=
EXTT6=
EXTT7=
EXTT8=
EXTT9=
EXTT10=
PLAYORDER=
